# xmcd
#
# Track frame offsets:
#	150
#	15927
#	34057
#	53740
#	72317
#	89640
#	101612
#	113832
#	128857
#	144022
#	157575
#	175215
#	194960
#
# Disc length: 2789 seconds
#
# Revision: 0
# Processed by: cddbd v1.4PL0 Copyright (c) Steve Scherf et al.
# Submitted via: EasyCDDAExtractor 4.6.0.1
#
DISCID=a80ae30d
DTITLE=Pedro Luis e a Parede - É tudo 1 real
DYEAR=1900
DGENRE=
TTITLE0=Rap do Real
TTITLE1=Menina Bonita
TTITLE2=Cidade em Movimento
TTITLE3=Mapa da Mina
TTITLE4=Aê Meu primo
TTITLE5=Brasileiro em Tóquio
TTITLE6=Ôba
TTITLE7=Vida de cão
TTITLE8=500
TTITLE9=Astronauta Tupy
TTITLE10=Quebra-quilos
TTITLE11=Mergulho Marítmo
TTITLE12=Moto Boy
EXTD=
EXTT0=
EXTT1=
EXTT2=
EXTT3=
EXTT4=
EXTT5=
EXTT6=
EXTT7=
EXTT8=
EXTT9=
EXTT10=
EXTT11=
EXTT12=
PLAYORDER=
